# xmcd
#
# Track frame offsets:
#	150
#	19528
#	34656
#	52651
#	66248
#	83747
#	100746
#	117996
#	136246
#	153372
#	170371
#	188110
#	206485
#	220233
#	235608
#	248733
#	264733
#	278920
#	296921
#	327803
#
# Disc length: 4518 seconds
#
# Revision: 0
# Processed by: cddbd v1.5.2PL0 Copyright (c) Steve Scherf et al.
# Submitted via: EasyCDDAExtractor 10.0.6.1
#
DISCID=1411a414
DTITLE=Various Artist - Clubland 10
DYEAR=2006
DGENRE=Dance
TTITLE0=Micky Modelle V Jesse - Over You (Flip and Fill Remix)
TTITLE1=Darren Styles - Save Me (Club Mix)
TTITLE2=Cascada - Truly Madly Deeply (Styles and Breeze Remix)
TTITLE3=Infernal - Self Control
TTITLE4=Frisco v Ice MC - Think About The Way
TTITLE5=Helena Paparizou - Mambo
TTITLE6=Hilla Deejays Feat. Carrie Ryan - Around The World (Lalalalala)
TTITLE7=Shane - Don't Give Me Your Love 2006
TTITLE8=Sugababes - Easy (Ultrabeat Remix)
TTITLE9=D Code Feat. Emma - My Direction (Styles and Breeze Remix)
TTITLE10=CJ Gee - Short Short Man (Doogie D Remix)
TTITLE11=Simmons and Christopher Feat. Class Action - Weekend (Dancing DJ's Remi
TTITLE11=x)
TTITLE12=Kelly LLorenna - I Will Love Again (Flip and Fill Remix)
TTITLE13=N-Euro - Lover On The Line
TTITLE14=Girls Aloud - Something Kinda Oooh (Flip and Fill Remix)
TTITLE15=Sublime - The Rain (Styles and Breeze Remix)
TTITLE16=Jennifer Paige - Crush (Pascal Remix)
TTITLE17=Headhunters Feat. Karen Danzig - I Got A Feeling
TTITLE18=Karen Parry - Against All Odds (Dancing DJ's Remix)
TTITLE19=Various Artist - DATA
EXTD=YEAR: 2006\n
EXTT0=
EXTT1=
EXTT2=
EXTT3=
EXTT4=
EXTT5=
EXTT6=
EXTT7=
EXTT8=
EXTT9=
EXTT10=
EXTT11=
EXTT12=
EXTT13=
EXTT14=
EXTT15=
EXTT16=
EXTT17=
EXTT18=
EXTT19=
PLAYORDER=
